<svg width="47" height="46" viewBox="0 0 47 46" fill="none" xmlns="http://www.w3.org/2000/svg">
<path d="M45.9355 30.382L37.5609 31.4115L40.4349 39.1601L32.4338 36.5278L31.577 44.7268L25.5312 38.9768L21.1153 46L18.2352 38.2514L11.1348 42.7165L11.9757 34.5156L3.59709 35.5198L8.0011 28.4868L0 25.8545L7.09233 21.3856L1.06455 15.618L9.43914 14.5905L6.56507 6.83995L14.5662 9.47219L15.423 1.27323L21.4688 7.02518L25.8848 0L28.7668 7.74856L35.8652 3.28544L35.0243 11.4844L43.4029 10.4802L38.9989 17.5132L47 20.1455L39.9077 24.6144L45.9355 30.382Z" fill="#FF6F61"/>
</svg>
