<svg width="43" height="44" viewBox="0 0 43 44" fill="none" xmlns="http://www.w3.org/2000/svg">
<path d="M43 22C43 23.8761 40.7571 25.4269 40.3049 27.1571C39.8526 28.8872 41.0097 31.4345 40.1236 33.0021C39.2252 34.5926 36.5239 34.7906 35.2629 36.083C34.0019 37.3754 33.8064 40.1353 32.252 41.0567C30.6977 41.978 28.2898 40.7648 26.5399 41.2422C24.8491 41.7049 23.3334 44 21.5 44C19.6666 44 18.1509 41.7049 16.4601 41.2422C14.7693 40.7794 12.2799 41.9634 10.748 41.0567C9.19363 40.1374 9.00009 37.3733 7.73706 36.083C6.47607 34.7927 3.77686 34.5926 2.87644 33.0021C1.97603 31.4116 3.16164 28.9477 2.69514 27.1571C2.24289 25.4269 0 23.8761 0 22C0 20.1239 2.24289 18.5731 2.69514 16.8429C3.16368 15.0523 1.99029 12.5655 2.87644 10.9979C3.7626 9.43036 6.47607 9.2094 7.73706 7.917C8.99806 6.6246 9.19363 3.8647 10.748 2.94334C12.3023 2.02198 14.7102 3.23517 16.4601 2.75782C18.1509 2.29505 19.6666 0 21.5 0C23.3334 0 24.8491 2.29505 26.5399 2.75782C28.2307 3.22058 30.7201 2.03657 32.252 2.94334C33.8064 3.86261 33.9999 6.62668 35.2629 7.917C36.526 9.20732 39.2231 9.40743 40.1236 10.9979C41.0097 12.5655 39.8384 15.0523 40.3049 16.8429C40.7714 18.6335 43 20.1239 43 22Z" fill="#40C065"/>
</svg>
